# xmcd
#
# Track frame offsets:
#	150
#	13729
#	28520
#	49010
#	61537
#	74932
#	92185
#	114182
#	131016
#	149814
#	167898
#
# Disc length: 2386 seconds
#
# Revision: 0
# Processed by: cddbd v1.5.2PL0 Copyright (c) Steve Scherf et al.
# Submitted via: EasyCDDAExtractor 10.0.6.1
#
DISCID=9f09500b
DTITLE=Various Artist - Picture View Publishing Vol.1
DYEAR=1900
DGENRE=Gospel
TTITLE0=The Scotts - Man Of Calvary
TTITLE1=The Burlesons - Beggin' Bread
TTITLE2=Joyce Bowman - Two Coats
TTITLE3=The bentons - Turn Up The Fire
TTITLE4=Glenis Sanders - All The Way
TTITLE5=Scott Spivey - I'm A Father Too
TTITLE6=Harmony - By The Side Of The Road
TTITLE7=Darrell Maupin - Have Faith And You Will See
TTITLE8=The Browders - This Side Of The River
TTITLE9=Elaine Athinson - He Is Risen
TTITLE10=The Principles - I Can Win
EXTD=
EXTT0=
EXTT1=
EXTT2=
EXTT3=
EXTT4=
EXTT5=
EXTT6=
EXTT7=
EXTT8=
EXTT9=
EXTT10=
PLAYORDER=
